<svg width="86" height="86" viewBox="0 0 86 86" fill="none" xmlns="http://www.w3.org/2000/svg">
<path d="M14.3333 46.5833H25.0833V53.75H14.3333V46.5833ZM32.25 53.75H43V46.5833H32.25V53.75ZM14.3333 68.0833H25.0833V60.9167H14.3333V68.0833ZM32.25 68.0833H43V60.9167H32.25V68.0833ZM14.3333 25.0833H25.0833V17.9167H14.3333V25.0833ZM32.25 25.0833H43V17.9167H32.25V25.0833ZM14.3333 39.4167H25.0833V32.25H14.3333V39.4167ZM32.25 39.4167H43V32.25H32.25V39.4167ZM86 28.6667V86H0V10.75C0 7.89892 1.13259 5.16462 3.1486 3.1486C5.16462 1.13259 7.89892 0 10.75 0L46.5833 0C49.4344 0 52.1687 1.13259 54.1847 3.1486C56.2007 5.16462 57.3333 7.89892 57.3333 10.75V17.9167H75.25C78.1011 17.9167 80.8354 19.0493 82.8514 21.0653C84.8674 23.0813 86 25.8156 86 28.6667ZM50.1667 10.75C50.1667 9.79964 49.7891 8.88821 49.1171 8.2162C48.4451 7.5442 47.5337 7.16667 46.5833 7.16667H10.75C9.79964 7.16667 8.88821 7.5442 8.2162 8.2162C7.5442 8.88821 7.16667 9.79964 7.16667 10.75V78.8333H50.1667V10.75ZM78.8333 28.6667C78.8333 27.7163 78.4558 26.8049 77.7838 26.1329C77.1118 25.4609 76.2004 25.0833 75.25 25.0833H57.3333V78.8333H78.8333V28.6667ZM64.5 53.75H71.6667V46.5833H64.5V53.75ZM64.5 68.0833H71.6667V60.9167H64.5V68.0833ZM64.5 39.4167H71.6667V32.25H64.5V39.4167Z" fill="#FF794A"/>
</svg>
