<svg width="86" height="86" viewBox="0 0 86 86" fill="none" xmlns="http://www.w3.org/2000/svg">
<path d="M85.9999 82.4168C85.9999 83.3671 85.6224 84.2785 84.9504 84.9506C84.2784 85.6226 83.3669 86.0001 82.4166 86.0001H3.58325C2.63289 86.0001 1.72145 85.6226 1.04945 84.9506C0.377444 84.2785 -8.46977e-05 83.3671 -8.46977e-05 82.4168C-8.46977e-05 81.4664 0.377444 80.555 1.04945 79.8829C1.72145 79.2109 2.63289 78.8334 3.58325 78.8334H82.4166C83.3669 78.8334 84.2784 79.2109 84.9504 79.8829C85.6224 80.555 85.9999 81.4664 85.9999 82.4168ZM1.04267 30.6447C0.270537 29.2126 -0.0871789 27.5936 0.0096635 25.9694C0.106506 24.3452 0.654074 22.7802 1.59092 21.4499C3.12192 19.2036 5.17226 17.3598 7.56792 16.0749L34.4465 2.08558C37.0884 0.711837 40.0222 -0.00537109 42.9999 -0.00537109C45.9776 -0.00537109 48.9115 0.711837 51.5533 2.08558L78.4283 16.0857C80.824 17.3705 82.8743 19.2143 84.4053 21.4607C85.3422 22.7909 85.8897 24.356 85.9866 25.9801C86.0834 27.6043 85.7257 29.2233 84.9536 30.6555C84.1223 32.228 82.8756 33.5422 81.3491 34.4552C79.8226 35.3682 78.0749 35.8449 76.2962 35.8334H75.2499V64.5001H78.8333C79.7836 64.5001 80.6951 64.8776 81.3671 65.5496C82.0391 66.2216 82.4166 67.1331 82.4166 68.0834C82.4166 69.0338 82.0391 69.9452 81.3671 70.6172C80.6951 71.2892 79.7836 71.6667 78.8333 71.6667H7.16658C6.21622 71.6667 5.30479 71.2892 4.63278 70.6172C3.96078 69.9452 3.58325 69.0338 3.58325 68.0834C3.58325 67.1331 3.96078 66.2216 4.63278 65.5496C5.30479 64.8776 6.21622 64.5001 7.16658 64.5001H10.7499V35.8334H9.70358C7.92323 35.8445 6.17402 35.3665 4.64674 34.4516C3.11946 33.5366 1.87278 32.2198 1.04267 30.6447ZM17.9166 64.5001H28.6666V35.8334H17.9166V64.5001ZM35.8333 35.8334V64.5001H50.1666V35.8334H35.8333ZM68.0833 35.8334H57.3333V64.5001H68.0833V35.8334ZM7.39233 27.323C7.61716 27.7375 7.95174 28.0822 8.35941 28.3192C8.76708 28.5562 9.23212 28.6764 9.70358 28.6667H76.2962C76.7677 28.6764 77.2328 28.5562 77.6404 28.3192C78.0481 28.0822 78.3827 27.7375 78.6075 27.323C78.7713 27.0491 78.8505 26.7329 78.8352 26.4142C78.8199 26.0954 78.7107 25.7883 78.5215 25.5313C77.6533 24.241 76.4868 23.179 75.1209 22.4353L48.2459 8.43524C46.6263 7.59468 44.8283 7.15589 43.0035 7.15589C41.1787 7.15589 39.3807 7.59468 37.7611 8.43524L10.8861 22.4353C9.52077 23.1814 8.35456 24.2444 7.4855 25.5349C7.2959 25.7908 7.18594 26.0969 7.16937 26.4149C7.1528 26.7329 7.23035 27.0488 7.39233 27.323Z" fill="#FF794A"/>
</svg>
