<svg width="86" height="86" viewBox="0 0 86 86" fill="none" xmlns="http://www.w3.org/2000/svg">
<path d="M75.25 21.5H51.6502L47.4971 17.3469L60.9167 8.95833L46.5833 0H39.4167V16.4332L34.3498 21.5H10.75C7.89892 21.5 5.16462 22.6326 3.1486 24.6486C1.13259 26.6646 0 29.3989 0 32.25L0 86H86V32.25C86 29.3989 84.8674 26.6646 82.8514 24.6486C80.8354 22.6326 78.1011 21.5 75.25 21.5ZM75.25 28.6667C76.2004 28.6667 77.1118 29.0442 77.7838 29.7162C78.4558 30.3882 78.8333 31.2996 78.8333 32.25V35.8333H65.9835L58.8168 28.6667H75.25ZM10.75 28.6667H27.1832L20.0165 35.8333H7.16667V32.25C7.16667 31.2996 7.5442 30.3882 8.2162 29.7162C8.88821 29.0442 9.79964 28.6667 10.75 28.6667ZM46.5833 78.8333H39.4167V68.0833C39.4167 67.133 39.7942 66.2215 40.4662 65.5495C41.1382 64.8775 42.0496 64.5 43 64.5C43.9504 64.5 44.8618 64.8775 45.5338 65.5495C46.2058 66.2215 46.5833 67.133 46.5833 68.0833V78.8333ZM53.75 78.8333V68.0833C53.75 65.2323 52.6174 62.4979 50.6014 60.4819C48.5854 58.4659 45.8511 57.3333 43 57.3333C40.1489 57.3333 37.4146 58.4659 35.3986 60.4819C33.3826 62.4979 32.25 65.2323 32.25 68.0833V78.8333H7.16667V43H22.9835L43 22.9835L63.0165 43H78.8333V78.8333H53.75ZM14.3333 50.1667H25.0833V57.3333H14.3333V50.1667ZM14.3333 64.5H25.0833V71.6667H14.3333V64.5ZM60.9167 50.1667H71.6667V57.3333H60.9167V50.1667ZM60.9167 64.5H71.6667V71.6667H60.9167V64.5ZM50.1667 43C50.1667 44.4174 49.7463 45.803 48.9589 46.9816C48.1714 48.1601 47.0521 49.0787 45.7426 49.6211C44.433 50.1636 42.9921 50.3055 41.6019 50.029C40.2117 49.7524 38.9347 49.0699 37.9324 48.0676C36.9301 47.0653 36.2476 45.7883 35.971 44.3981C35.6945 43.0079 35.8364 41.567 36.3789 40.2574C36.9213 38.9479 37.8399 37.8286 39.0184 37.0411C40.197 36.2537 41.5826 35.8333 43 35.8333C44.9007 35.8333 46.7236 36.5884 48.0676 37.9324C49.4116 39.2764 50.1667 41.0993 50.1667 43Z" fill="#FF794A"/>
</svg>
