<svg width="86" height="86" viewBox="0 0 86 86" fill="none" xmlns="http://www.w3.org/2000/svg">
<path d="M83.3234 83.875C83.934 83.5207 84.4688 83.0496 84.8972 82.4886C85.3257 81.9275 85.6395 81.2876 85.8207 80.6053C86.0019 79.923 86.0469 79.2117 85.9532 78.5121C85.8595 77.8124 85.6289 77.138 85.2745 76.5274C84.9202 75.9169 84.4491 75.3821 83.888 74.9536C83.327 74.5251 82.6871 74.2113 82.0048 74.0301C80.6269 73.6642 79.16 73.8607 77.9269 74.5763C76.907 75.1042 75.7589 75.3341 74.6144 75.2396C73.4698 75.1452 72.375 74.7303 71.4554 74.0424C69.4233 72.5991 66.9926 71.8237 64.5001 71.8237C62.0077 71.8237 59.577 72.5991 57.5449 74.0424C56.4312 74.8174 55.1069 75.2328 53.7501 75.2328C52.3933 75.2328 51.0691 74.8174 49.9554 74.0424C47.9233 72.5991 45.4926 71.8237 43.0001 71.8237C40.5077 71.8237 38.077 72.5991 36.0449 74.0424C34.9312 74.8174 33.6069 75.2328 32.2501 75.2328C30.8933 75.2328 29.5691 74.8174 28.4554 74.0424C26.4233 72.5991 23.9926 71.8237 21.5001 71.8237C19.0077 71.8237 16.577 72.5991 14.5449 74.0424C13.6247 74.7291 12.53 75.1433 11.3857 75.2377C10.2414 75.3321 9.09367 75.1029 8.07339 74.5763C6.8403 73.8607 5.37343 73.6642 3.99549 74.0301C2.61754 74.396 1.44139 75.2943 0.725766 76.5274C0.0101458 77.7605 -0.186321 79.2274 0.179586 80.6053C0.545493 81.9833 1.4438 83.1594 2.67689 83.875C5.48918 85.4152 8.67871 86.1313 11.8795 85.9412C15.0803 85.751 18.1626 84.6623 20.7727 82.8C20.982 82.6414 21.2375 82.5555 21.5001 82.5555C21.7628 82.5555 22.0183 82.6414 22.2276 82.8C25.1723 84.8386 28.6686 85.9307 32.2501 85.9307C35.8316 85.9307 39.328 84.8386 42.2727 82.8C42.482 82.6414 42.7375 82.5555 43.0001 82.5555C43.2628 82.5555 43.5183 82.6414 43.7276 82.8C46.6723 84.8386 50.1686 85.9307 53.7501 85.9307C57.3316 85.9307 60.828 84.8386 63.7727 82.8C63.982 82.6414 64.2375 82.5555 64.5001 82.5555C64.7628 82.5555 65.0183 82.6414 65.2276 82.8C68.1597 84.8834 71.664 86.0098 75.2609 86.025C78.0907 86.0297 80.8717 85.2881 83.3234 83.875Z" fill="#FF794A"/>
<path d="M10.7501 59.125V40.0151C10.7511 39.5421 10.9392 39.0886 11.2732 38.7537L36.6647 13.3623C37.4966 12.5301 38.4843 11.8701 39.5713 11.4197C40.6584 10.9694 41.8234 10.7376 43.0001 10.7376C44.1767 10.7376 45.3418 10.9694 46.4288 11.4197C47.5159 11.8701 48.5035 12.5301 49.3354 13.3623L74.7269 38.7537C75.061 39.0886 75.249 39.5421 75.2501 40.0151V59.0963C75.2501 60.5219 75.8164 61.889 76.8244 62.897C77.8324 63.905 79.1995 64.4713 80.6251 64.4713C82.0506 64.4713 83.4178 63.905 84.4258 62.897C85.4338 61.889 86.0001 60.5219 86.0001 59.0963V40.0223C86.0055 38.3744 85.6836 36.7419 85.0531 35.2195C84.4226 33.6971 83.496 32.315 82.3272 31.1535L56.9357 5.762C53.2364 2.0723 48.2249 0.000244141 43.0001 0.000244141C37.7753 0.000244141 32.7637 2.0723 29.0645 5.762L3.67298 31.1535C2.5041 32.315 1.57752 33.6971 0.94702 35.2195C0.316515 36.7419 -0.0053614 38.3744 6.75473e-05 40.0223V59.125C6.75473e-05 60.5505 0.566361 61.9177 1.57437 62.9257C2.58238 63.9337 3.94953 64.5 5.37507 64.5C6.80061 64.5 8.16776 63.9337 9.17577 62.9257C10.1838 61.9177 10.7501 60.5505 10.7501 59.125Z" fill="#FF794A"/>
<path d="M43.6525 50.1667H42.3482C38.7197 50.1667 35.2398 51.6082 32.6741 54.1739C30.1084 56.7396 28.667 60.2194 28.667 63.8479V64.5001H57.3337V63.8479C57.3337 60.2194 55.8923 56.7396 53.3265 54.1739C50.7608 51.6082 47.281 50.1667 43.6525 50.1667Z" fill="#FF794A"/>
</svg>
