<svg width="119" height="119" viewBox="0 0 119 119" fill="none" xmlns="http://www.w3.org/2000/svg">
<path d="M64.2592 4.96583C64.2592 3.65091 64.7815 2.38985 65.7113 1.46006C66.6411 0.530268 67.9022 0.00791763 69.2171 0.00791763C82.3619 0.0223531 94.9641 5.25049 104.259 14.5453C113.554 23.84 118.782 36.4423 118.796 49.5871C118.796 50.902 118.274 52.1631 117.344 53.0929C116.414 54.0227 115.153 54.545 113.838 54.545C112.523 54.545 111.262 54.0227 110.333 53.0929C109.403 52.1631 108.88 50.902 108.88 49.5871C108.869 39.0713 104.686 28.9897 97.2503 21.5539C89.8145 14.1182 79.7328 9.93556 69.2171 9.92375C67.9022 9.92375 66.6411 9.4014 65.7113 8.47161C64.7815 7.54182 64.2592 6.28076 64.2592 4.96583ZM69.2171 29.7554C74.4768 29.7554 79.521 31.8448 83.2402 35.564C86.9594 39.2831 89.0488 44.3274 89.0488 49.5871C89.0488 50.902 89.5711 52.1631 90.5009 53.0929C91.4307 54.0227 92.6917 54.545 94.0067 54.545C95.3216 54.545 96.5827 54.0227 97.5125 53.0929C98.4422 52.1631 98.9646 50.902 98.9646 49.5871C98.9567 41.7 95.8201 34.1382 90.243 28.5611C84.666 22.9841 77.1042 19.8475 69.2171 19.8396C67.9022 19.8396 66.6411 20.3619 65.7113 21.2917C64.7815 22.2215 64.2592 23.4826 64.2592 24.7975C64.2592 26.1124 64.7815 27.3735 65.7113 28.3033C66.6411 29.2331 67.9022 29.7554 69.2171 29.7554ZM114.299 82.9985C117.173 85.8796 118.786 89.7825 118.786 93.8514C118.786 97.9203 117.173 101.823 114.299 104.704L109.788 109.905C69.1824 148.78 -29.6289 49.9936 8.64622 9.25939L14.3478 4.30147C17.2322 1.50857 21.1002 -0.0364603 25.115 0.000653501C29.1297 0.0377673 32.9685 1.65404 35.8007 4.49979C35.9544 4.65349 45.1415 16.5872 45.1415 16.5872C47.8675 19.451 49.385 23.2552 49.3785 27.209C49.372 31.1629 47.8421 34.9621 45.1067 37.817L39.3655 45.0357C42.5428 52.7557 47.2142 59.7719 53.1113 65.681C59.0085 71.59 66.0152 76.2756 73.7288 79.4685L80.9921 73.6925C83.8474 70.9593 87.646 69.4311 91.5986 69.4256C95.5512 69.42 99.354 70.9375 102.217 73.6627C102.217 73.6627 114.146 82.8448 114.299 82.9985ZM107.477 90.2073C107.477 90.2073 95.613 81.0798 95.4593 80.9261C94.4379 79.9133 93.0578 79.3451 91.6194 79.3451C90.1811 79.3451 88.8009 79.9133 87.7795 80.9261C87.6457 81.0649 77.6456 89.0323 77.6456 89.0323C76.9717 89.5687 76.1697 89.9203 75.3185 90.0524C74.4674 90.1846 73.5966 90.0927 72.7917 89.7859C62.7989 86.0653 53.7223 80.2406 46.1768 72.7062C38.6314 65.1719 32.7933 56.1039 29.058 46.1165C28.7268 45.3007 28.6188 44.4115 28.7451 43.5401C28.8715 42.6688 29.2276 41.8468 29.7769 41.1586C29.7769 41.1586 37.7442 31.1536 37.8781 31.0246C38.8908 30.0032 39.4591 28.6231 39.4591 27.1847C39.4591 25.7464 38.8908 24.3662 37.8781 23.3448C37.7244 23.1961 28.5969 11.3219 28.5969 11.3219C27.5602 10.3923 26.2072 9.89448 24.8152 9.93043C23.4233 9.96638 22.0978 10.5334 21.1104 11.5152L15.4088 16.4732C-12.5637 50.1077 73.0644 130.986 102.539 103.133L107.056 97.9268C108.114 96.9464 108.75 95.5929 108.829 94.1523C108.907 92.7118 108.423 91.2971 107.477 90.2073Z" fill="#FF794B"/>
</svg>
