<svg width="223" height="223" viewBox="0 0 223 223" fill="none" xmlns="http://www.w3.org/2000/svg">
<path d="M120.429 9.30651C120.429 6.8422 121.408 4.47883 123.15 2.7363C124.893 0.993779 127.256 0.0148385 129.72 0.0148385C154.355 0.0418921 177.973 9.83999 195.392 27.2594C212.812 44.6788 222.61 68.2968 222.637 92.9315C222.637 95.3958 221.658 97.7592 219.915 99.5017C218.173 101.244 215.81 102.223 213.345 102.223C210.881 102.223 208.518 101.244 206.775 99.5017C205.033 97.7592 204.054 95.3958 204.054 92.9315C204.031 73.2239 196.193 54.3298 182.257 40.3943C168.322 26.4589 149.428 18.6203 129.72 18.5982C127.256 18.5982 124.893 17.6192 123.15 15.8767C121.408 14.1342 120.429 11.7708 120.429 9.30651ZM129.72 55.7648C139.577 55.7648 149.031 59.6806 156.001 66.6507C162.971 73.6208 166.887 83.0743 166.887 92.9315C166.887 95.3958 167.866 97.7592 169.608 99.5017C171.351 101.244 173.714 102.223 176.179 102.223C178.643 102.223 181.006 101.244 182.749 99.5017C184.491 97.7592 185.47 95.3958 185.47 92.9315C185.455 78.1502 179.577 63.9786 169.125 53.5266C158.673 43.0746 144.502 37.1963 129.72 37.1815C127.256 37.1815 124.893 38.1604 123.15 39.903C121.408 41.6455 120.429 44.0089 120.429 46.4732C120.429 48.9375 121.408 51.3008 123.15 53.0434C124.893 54.7859 127.256 55.7648 129.72 55.7648ZM214.209 155.548C219.594 160.948 222.618 168.262 222.618 175.887C222.618 183.513 219.594 190.827 214.209 196.227L205.754 205.974C129.655 278.83 -55.5277 93.6934 16.204 17.3531L26.8894 8.06142C32.295 2.82721 39.544 -0.0683305 47.0681 0.00122473C54.5923 0.0707799 61.7865 3.09984 67.0944 8.43309C67.3825 8.72113 84.5999 31.0862 84.5999 31.0862C89.7087 36.4533 92.5527 43.5828 92.5406 50.9927C92.5285 58.4025 89.6612 65.5227 84.5349 70.8731L73.7751 84.4018C79.7297 98.8699 88.4844 112.019 99.5363 123.093C110.588 134.167 123.72 142.949 138.176 148.932L151.788 138.108C157.139 132.985 164.258 130.121 171.666 130.111C179.073 130.101 186.2 132.945 191.566 138.052C191.566 138.052 213.921 155.26 214.209 155.548ZM201.424 169.058C201.424 169.058 179.189 151.952 178.901 151.664C176.987 149.766 174.4 148.701 171.705 148.701C169.009 148.701 166.422 149.766 164.508 151.664C164.257 151.924 145.516 166.856 145.516 166.856C144.253 167.861 142.75 168.52 141.155 168.768C139.56 169.016 137.928 168.843 136.42 168.268C117.692 161.296 100.681 150.379 86.5403 136.259C72.3993 122.139 61.4581 105.145 54.4577 86.4273C53.837 84.8985 53.6347 83.2318 53.8715 81.5988C54.1083 79.9658 54.7757 78.4253 55.805 77.1357C55.805 77.1357 70.7367 58.3851 70.9876 58.1435C72.8856 56.2293 73.9505 53.6428 73.9505 50.9471C73.9505 48.2514 72.8856 45.6649 70.9876 43.7507C70.6996 43.472 53.5936 21.2184 53.5936 21.2184C51.6507 19.4763 49.1151 18.5433 46.5064 18.6107C43.8977 18.6781 41.4136 19.7407 39.5632 21.5808L28.8778 30.8725C-23.5458 93.9071 136.931 245.482 192.17 193.281L200.634 183.525C202.618 181.688 203.809 179.151 203.957 176.452C204.104 173.752 203.196 171.1 201.424 169.058Z" fill="#FF794B"/>
</svg>
