<svg width="101" height="120" viewBox="0 0 101 120" fill="none" xmlns="http://www.w3.org/2000/svg">
<path d="M50.2917 119.04L46.8354 116.077C42.0705 112.087 0.465332 76.1555 0.465332 49.8723C0.465332 22.354 22.7734 0.0458984 50.2917 0.0458984C77.81 0.0458984 100.118 22.354 100.118 49.8723C100.118 76.1557 58.5129 112.087 53.7678 116.097L50.2917 119.04ZM50.2917 10.8198C28.7339 10.8442 11.2639 28.3142 11.2395 49.872C11.2395 66.3838 36.8366 92.7608 50.2917 104.834C63.7471 92.756 89.3439 66.3638 89.3439 49.872C89.3195 28.3142 71.8498 10.8445 50.2917 10.8198Z" fill="#FF794B"/>
<path d="M50.2918 69.6226C39.3837 69.6226 30.541 60.7799 30.541 49.8718C30.541 38.9638 39.3837 30.1211 50.2918 30.1211C61.1998 30.1211 70.0425 38.9638 70.0425 49.8718C70.0425 60.7799 61.2 69.6226 50.2918 69.6226ZM50.2918 39.9962C44.8377 39.9962 40.4164 44.4176 40.4164 49.8716C40.4164 55.3256 44.8377 59.747 50.2918 59.747C55.7458 59.747 60.1671 55.3256 60.1671 49.8716C60.1671 44.4176 55.746 39.9962 50.2918 39.9962Z" fill="#FF794B"/>
</svg>
