<svg width="119" height="119" viewBox="0 0 119 119" fill="none" xmlns="http://www.w3.org/2000/svg">
<path d="M94.2004 0H24.7896C18.2174 0.00858814 11.9166 2.86053 7.2694 7.93025C2.62215 13 0.00787247 19.8735 0 27.0432L0 91.9468C0.00787247 99.1165 2.62215 105.99 7.2694 111.06C11.9166 116.129 18.2174 118.981 24.7896 118.99H94.2004C100.773 118.981 107.073 116.129 111.721 111.06C116.368 105.99 118.982 99.1165 118.99 91.9468V27.0432C118.982 19.8735 116.368 13 111.721 7.93025C107.073 2.86053 100.773 0.00858814 94.2004 0ZM24.7896 10.8173H94.2004C97.1691 10.8236 100.068 11.799 102.525 13.6179C104.981 15.4368 106.882 18.0159 107.983 21.0234L70.0157 62.4481C67.2216 65.4841 63.4386 67.1886 59.495 67.1886C55.5514 67.1886 51.7684 65.4841 48.9743 62.4481L11.0066 21.0234C12.108 18.0159 14.0092 15.4368 16.4655 13.6179C18.9218 11.799 21.8209 10.8236 24.7896 10.8173ZM94.2004 108.173H24.7896C20.8448 108.173 17.0616 106.463 14.2723 103.42C11.4829 100.377 9.91583 96.2502 9.91583 91.9468V35.1561L41.9638 70.0959C46.6174 75.1598 52.9221 78.0036 59.495 78.0036C66.0679 78.0036 72.3726 75.1598 77.0262 70.0959L109.074 35.1561V91.9468C109.074 96.2502 107.507 100.377 104.718 103.42C101.928 106.463 98.1452 108.173 94.2004 108.173Z" fill="#FF794B"/>
</svg>
